<?xml version="1.0" standalone="no"?>
<!DOCTYPE svg PUBLIC "-//W3C//DTD SVG 20010904//EN"
 "http://www.w3.org/TR/2001/REC-SVG-20010904/DTD/svg10.dtd">
<svg version="1.0" xmlns="http://www.w3.org/2000/svg"
 width="300.000000pt" height="300.000000pt" viewBox="0 0 300.000000 300.000000"
 preserveAspectRatio="xMidYMid meet">
<metadata>
Created by potrace 1.10, written by Peter Selinger 2001-2011
</metadata>
<g transform="translate(0.000000,300.000000) scale(0.100000,-0.100000)"
fill="#FFD700" stroke="none">
<path d="M1310 2533 c-60 -10 -91 -27 -132 -71 l-43 -47 -75 -1 c-82 -2 -118
-13 -167 -50 -41 -31 -74 -118 -78 -209 -4 -68 -5 -70 -42 -95 -56 -38 -78
-89 -77 -180 1 -47 8 -90 18 -115 16 -38 16 -41 0 -50 -40 -23 -87 -71 -112
-114 -25 -42 -27 -57 -30 -166 -4 -137 7 -195 45 -233 25 -24 27 -25 130 -19
97 6 140 17 154 39 3 5 24 4 48 -4 32 -10 48 -23 67 -55 31 -53 68 -73 136
-73 38 -1 64 -7 93 -25 27 -17 55 -25 86 -25 47 0 119 -23 119 -39 0 -4 11
-20 25 -35 17 -19 34 -26 60 -26 l35 0 -6 -57 c-4 -32 -7 -62 -8 -68 0 -5 21
-11 48 -13 36 -2 47 0 44 10 -3 7 -17 14 -31 16 -31 4 -37 22 -7 22 11 0 20 7
20 15 0 8 -7 15 -15 15 -23 0 -18 18 7 22 12 2 23 8 25 15 5 13 -14 20 -72 28
-74 10 -83 15 -104 49 -24 38 -64 56 -123 56 -39 0 -99 20 -126 43 -8 6 -41
13 -72 13 -71 2 -93 13 -126 69 -15 27 -33 45 -44 45 -9 0 -29 9 -43 20 -26
20 -26 20 -36 1 -14 -25 -57 -38 -153 -45 -93 -7 -121 2 -144 46 -26 49 -32
227 -10 300 18 62 78 138 126 158 16 7 30 14 30 15 0 2 -9 22 -20 46 -13 30
-20 66 -20 114 0 89 28 151 81 179 l37 20 4 87 c6 120 33 173 108 212 50 26
63 28 133 24 42 -2 77 0 77 5 0 4 16 26 36 47 71 80 176 91 295 33 35 -17 72
-37 81 -44 14 -10 25 -8 65 12 57 28 145 37 199 20 55 -18 103 -66 116 -118
11 -43 12 -44 42 -37 82 19 126 22 181 13 73 -11 102 -29 121 -73 19 -47 18
-84 -7 -129 -17 -32 -19 -44 -10 -63 16 -36 13 -78 -8 -104 -19 -23 -19 -23
24 -65 35 -33 45 -52 55 -97 13 -66 6 -136 -22 -194 -24 -51 -63 -67 -149 -61
-42 3 -59 1 -59 -8 0 -6 7 -14 15 -18 8 -3 15 -12 15 -20 0 -12 12 -14 68 -9
78 6 127 -6 172 -44 27 -22 30 -31 30 -79 0 -69 -12 -81 -158 -156 -159 -82
-240 -102 -303 -74 -12 5 -18 0 -22 -22 -6 -27 -17 -34 -162 -92 -86 -34 -154
-64 -152 -67 3 -2 67 20 143 48 90 34 149 63 167 81 25 24 37 28 85 28 67 0
129 22 264 92 129 67 153 93 153 163 0 46 -4 58 -30 85 -36 38 -90 54 -176 52
-48 -1 -70 2 -79 13 -11 13 -3 15 60 15 68 0 74 2 105 33 79 79 67 294 -19
351 -25 16 -25 18 -10 41 13 20 15 38 10 83 -5 43 -3 66 9 88 37 72 7 171 -63
201 -41 18 -174 23 -233 10 -36 -9 -37 -8 -49 27 -28 87 -92 129 -195 130 -58
1 -80 -4 -124 -26 l-53 -28 -41 28 c-73 50 -166 76 -227 65z"/>
<path d="M1306 2460 c-59 -18 -116 -92 -116 -151 l0 -31 -34 30 c-45 40 -91
47 -157 25 -39 -13 -60 -27 -76 -51 -32 -49 -48 -135 -36 -204 l9 -58 -27 0
c-34 0 -78 -35 -95 -76 -41 -99 28 -234 121 -234 14 0 25 -4 25 -10 0 -5 -15
-10 -33 -10 -59 0 -128 -31 -178 -79 -62 -60 -84 -130 -74 -235 9 -106 19
-121 80 -122 28 -1 54 1 60 4 5 4 22 5 37 3 20 -2 31 5 45 26 10 15 27 35 37
44 26 22 15 66 -19 75 -32 8 -32 32 0 39 83 17 75 22 75 -47 0 -45 6 -72 20
-95 22 -37 27 -39 57 -18 19 14 21 13 26 -21 3 -20 18 -51 32 -70 30 -39 62
-44 121 -19 34 14 35 13 44 -9 17 -45 98 -80 136 -58 12 7 26 4 50 -10 18 -11
38 -17 43 -13 6 3 20 -13 31 -35 12 -23 26 -43 33 -46 7 -2 84 25 172 60 142
57 160 67 160 87 0 15 -11 31 -31 44 -31 21 -31 21 -13 44 11 13 19 29 19 37
0 8 9 14 19 14 11 0 26 9 34 20 13 19 16 16 41 -44 40 -93 50 -100 113 -80 70
22 283 135 297 157 13 21 2 42 -38 71 -37 28 -111 27 -160 -2 -21 -12 -39 -22
-41 -22 -2 0 -6 14 -10 31 -4 17 -15 39 -25 49 -11 11 -24 36 -29 57 -6 21
-21 54 -33 73 -12 19 -22 54 -23 78 -2 40 -1 42 25 42 16 0 35 3 44 6 10 4 16
1 16 -9 0 -8 -9 -17 -20 -20 -24 -6 -26 -31 -5 -49 9 -7 24 -21 34 -31 13 -13
36 -18 86 -19 59 -1 70 1 86 21 10 12 21 42 25 67 13 89 -11 150 -74 187 -38
22 -162 34 -212 20 -32 -9 -39 -7 -67 16 l-32 27 122 11 c67 7 137 17 155 24
75 26 55 82 -37 103 l-54 12 44 13 c69 20 109 55 109 96 0 18 -7 40 -15 49
-18 18 -78 36 -118 36 -25 0 -162 -31 -199 -45 -10 -4 -13 7 -14 42 -1 67 -26
110 -77 134 -23 10 -53 19 -67 19 -35 0 -99 -32 -138 -68 l-33 -31 -38 38
c-40 40 -124 85 -176 94 -16 3 -43 2 -59 -3z m163 -80 c28 -19 51 -42 51 -50
-1 -38 -122 -141 -232 -196 -101 -51 -202 -75 -295 -72 l-78 3 2 67 c2 94 24
137 86 162 42 18 53 19 95 7 52 -14 89 -42 95 -75 3 -15 5 -13 6 9 2 57 22
106 59 147 36 40 37 40 98 36 51 -3 72 -10 113 -38z m337 4 c41 -20 61 -54 65
-112 l3 -43 -84 -34 c-100 -41 -90 -39 -90 -20 0 26 -19 16 -26 -12 -44 -183
-346 -353 -584 -328 -35 4 -75 11 -88 16 -30 11 -39 5 -23 -15 10 -12 7 -23
-21 -58 -18 -24 -33 -44 -34 -46 -3 -7 -72 23 -90 40 -53 48 -52 148 2 199 25
24 29 24 217 24 l192 0 67 33 c82 40 155 105 247 221 110 137 171 171 247 135z
m-246 -83 c0 -14 -104 -128 -155 -170 -67 -56 -157 -99 -230 -111 -59 -10
-255 -3 -255 9 0 3 39 7 88 9 198 6 416 110 509 244 22 33 43 42 43 19z m609
-62 c36 -13 51 -50 30 -75 -23 -28 -97 -53 -218 -75 -107 -19 -142 -31 -130
-44 3 -2 23 0 44 6 61 17 245 8 278 -14 57 -37 3 -53 -230 -69 -95 -7 -173
-16 -173 -20 0 -4 15 -8 33 -8 47 0 118 -39 140 -78 28 -48 17 -98 -24 -106
-34 -7 -30 -26 5 -26 27 0 41 -14 50 -51 6 -26 5 -27 -42 -27 -27 0 -63 -7
-80 -16 -36 -19 -55 -42 -26 -33 83 27 105 30 131 21 30 -10 66 -67 78 -121 6
-30 4 -32 -51 -57 -31 -15 -58 -25 -58 -24 -1 2 -7 16 -14 31 -6 15 -19 30
-28 34 -21 8 -66 -8 -72 -26 -3 -10 0 -12 12 -8 9 4 22 9 29 12 22 9 36 -10
42 -54 3 -24 7 -46 9 -50 2 -3 -2 -15 -10 -26 -15 -20 -15 -20 -32 3 -22 28
-32 20 -32 -28 0 -44 -28 -73 -85 -89 -57 -16 -67 -14 -60 9 3 10 1 37 -5 60
-8 29 -16 40 -30 40 -16 0 -20 7 -20 39 0 80 -55 153 -125 167 -38 7 -73 0
-122 -23 -45 -21 -94 -103 -63 -103 6 0 10 6 10 13 0 7 12 25 28 39 97 93 220
42 246 -102 6 -35 5 -36 -31 -47 -21 -6 -55 -18 -75 -27 -37 -16 -38 -16 -38
5 0 32 -19 59 -40 59 -24 0 -63 -37 -55 -50 4 -6 12 -4 21 5 29 28 44 18 44
-30 0 -24 9 -67 20 -95 11 -28 20 -55 20 -59 0 -5 -9 -7 -20 -4 -11 3 -20 14
-20 24 0 23 -8 23 -34 4 -25 -19 -50 -19 -90 0 -41 20 -61 51 -45 71 16 19 -1
19 -61 -3 -39 -14 -53 -15 -75 -5 -34 16 -59 75 -52 124 6 44 -4 49 -27 12
-25 -37 -58 -29 -68 16 -15 70 8 156 56 208 34 37 30 40 -16 12 -111 -67 -132
49 -35 193 31 47 33 48 72 41 65 -11 186 -6 249 11 150 40 329 166 371 262 22
50 49 64 230 116 176 52 206 56 264 36z m31 -387 c41 -20 70 -71 70 -122 0
-19 -8 -51 -18 -70 -17 -34 -18 -35 -82 -35 -60 0 -65 2 -68 23 -3 23 -22 32
-22 10 0 -9 -3 -9 -12 0 -10 10 -7 16 10 28 28 20 32 80 5 69 -37 -15 -107
-25 -116 -16 -5 5 -4 18 3 31 7 13 10 40 7 61 l-5 39 96 0 c72 0 106 -4 132
-18z m-1296 -209 c-4 -16 -7 -30 -6 -33 1 -56 30 -96 63 -87 12 3 19 1 16 -6
-5 -16 -66 -35 -114 -36 -38 -1 -43 -4 -42 -23 1 -30 13 -70 19 -67 3 1 15 -1
28 -5 25 -8 27 -36 3 -44 -8 -3 -11 0 -7 7 4 6 1 11 -8 11 -10 0 -16 -12 -18
-37 -3 -35 -5 -38 -35 -38 -17 0 -35 -3 -39 -7 -12 -13 -24 -9 -24 7 0 14 -3
14 -24 0 -23 -16 -25 -15 -37 7 -7 13 -15 58 -17 101 -8 131 37 204 154 252
80 33 96 33 88 -2z m1171 -229 c8 -20 15 -45 15 -55 0 -30 17 -30 50 1 44 41
99 55 143 36 51 -21 52 -32 6 -62 -70 -44 -241 -124 -265 -124 -19 0 -30 15
-64 86 -23 48 -38 89 -35 92 4 5 125 61 132 62 2 0 10 -16 18 -36z m-420 -157
c4 -24 5 -52 3 -63 -2 -11 2 -18 10 -16 7 1 42 3 78 3 48 1 70 -3 82 -15 9 -8
14 -17 11 -20 -10 -9 -266 -106 -281 -106 -18 0 -88 134 -91 176 -2 26 4 30
68 56 100 39 112 38 120 -15z"/>
<path d="M1675 1880 c-8 -14 3 -30 21 -30 8 0 14 9 14 20 0 21 -24 28 -35 10z"/>
<path d="M1647 1804 c-69 -48 -273 -104 -378 -104 -28 0 -39 -4 -39 -15 0 -18
11 -18 105 -5 99 14 220 47 285 76 59 27 103 62 94 75 -8 13 -14 10 -67 -27z"/>
<path d="M1193 1734 c-7 -19 11 -39 26 -30 16 10 13 33 -4 40 -9 3 -18 -1 -22
-10z"/>
<path d="M1316 909 c-14 -72 1 -119 40 -119 20 0 56 39 50 55 -2 7 2 19 10 25
19 17 18 26 -8 50 -12 11 -35 20 -54 20 -27 0 -32 -4 -38 -31z m73 -18 c9 -16
8 -18 -8 -14 -23 6 -37 -13 -15 -21 13 -5 14 -9 4 -21 -20 -24 -31 -17 -27 18
6 57 27 74 46 38z"/>
<path d="M1836 918 c-11 -54 -13 -107 -5 -115 12 -12 82 -1 81 12 -1 6 -13 11
-27 13 -31 4 -33 18 -2 26 21 6 21 7 5 20 -23 17 -23 26 0 26 10 0 22 3 25 7
13 12 -15 33 -44 33 -22 0 -30 -5 -33 -22z"/>
<path d="M1947 933 c-3 -4 -8 -36 -12 -70 l-7 -63 46 0 c34 0 46 4 46 15 0 9
-9 15 -25 15 -31 0 -33 15 -2 24 21 6 21 7 5 20 -25 18 -22 35 3 29 17 -5 20
-2 17 13 -2 13 -13 20 -35 22 -17 2 -33 -1 -36 -5z"/>
<path d="M2044 927 c-3 -8 -4 -39 -2 -68 3 -46 6 -54 24 -57 58 -8 99 81 52
112 -38 24 -67 29 -74 13z m60 -44 c4 -10 -1 -24 -12 -35 -18 -18 -18 -17 -14
17 4 38 16 45 26 18z"/>
<path d="M905 920 c-3 -5 3 -15 14 -22 17 -10 19 -19 14 -51 -4 -27 -2 -42 8
-47 21 -14 29 -2 29 46 0 32 4 44 14 44 21 0 31 21 15 31 -19 12 -86 11 -94
-1z"/>
<path d="M1020 883 c0 -48 23 -83 55 -83 32 0 57 39 53 81 -4 47 -23 46 -34
-3 -12 -57 -32 -61 -36 -6 -2 31 -8 44 -20 46 -15 3 -18 -4 -18 -35z"/>
<path d="M1169 898 c-6 -12 -12 -44 -13 -72 -1 -39 2 -51 14 -51 12 0 15 12
14 54 0 30 2 48 4 41 4 -10 6 -10 12 1 8 12 70 21 70 10 0 -3 -5 -24 -10 -46
-9 -40 2 -71 21 -59 14 8 11 120 -3 131 -7 5 -32 10 -55 11 -34 1 -45 -3 -54
-20z"/>
<path d="M1445 864 c-6 -40 -4 -58 5 -64 12 -7 76 3 87 13 12 12 -11 29 -34
24 -23 -4 -24 -2 -21 37 2 32 -1 41 -14 44 -13 3 -18 -8 -23 -54z"/>
<path d="M1664 905 c-8 -21 2 -95 14 -107 6 -6 31 -12 56 -14 51 -5 59 4 71
69 5 24 3 42 -5 52 -21 25 -30 17 -30 -27 0 -24 -5 -50 -10 -58 -8 -13 -10
-13 -10 1 0 24 -29 32 -38 11 -5 -11 -9 0 -12 32 -5 50 -25 72 -36 41z"/>
<path d="M1227 872 c-10 -2 -17 -11 -15 -20 5 -25 25 -25 31 0 7 26 7 26 -16
20z"/>
<path d="M1406 704 c-4 -10 -2 -22 4 -28 13 -13 13 -29 0 -21 -5 3 -10 2 -10
-4 0 -17 20 -23 35 -11 11 9 12 17 5 31 -6 10 -9 23 -8 30 5 19 -19 21 -26 3z"/>
<path d="M1466 681 c9 -49 24 -63 24 -23 0 18 5 32 10 32 21 0 9 18 -15 22
-24 5 -25 4 -19 -31z"/>
<path d="M1626 689 c-9 -44 -8 -59 4 -59 6 0 10 7 10 15 0 21 20 19 21 -2 1
-12 4 -10 9 7 12 36 12 70 0 70 -5 0 -10 -9 -10 -21 0 -11 -5 -17 -10 -14 -6
4 -8 10 -5 15 3 5 1 11 -4 14 -5 3 -11 -8 -15 -25z"/>
<path d="M1726 688 c-8 -38 1 -47 34 -38 21 6 23 8 8 15 -10 4 -18 15 -18 25
0 33 -17 31 -24 -2z"/>
<path d="M1790 687 c0 -40 5 -46 31 -40 22 6 26 23 4 23 -9 0 -15 9 -15 25 0
14 -4 25 -10 25 -5 0 -10 -15 -10 -33z"/>
<path d="M1290 685 c0 -18 -4 -23 -15 -19 -18 7 -20 -7 -3 -24 8 -8 15 -9 25
-1 15 13 18 69 3 69 -5 0 -10 -11 -10 -25z"/>
<path d="M1320 701 c0 -24 21 -61 35 -61 21 0 42 47 28 61 -7 7 -12 3 -17 -16
-7 -29 -26 -25 -26 6 0 10 -4 19 -10 19 -5 0 -10 -4 -10 -9z"/>
<path d="M1560 689 c-14 -24 2 -49 31 -49 26 0 24 16 -3 24 -22 6 -22 7 -5 20
21 16 22 26 2 26 -8 0 -19 -9 -25 -21z"/>
<path d="M1690 670 c0 -22 5 -40 10 -40 6 0 10 18 10 40 0 22 -4 40 -10 40 -5
0 -10 -18 -10 -40z"/>
</g>
</svg>
